<svg width="193" height="386" viewBox="0 0 193 386" fill="none" xmlns="http://www.w3.org/2000/svg">
<path d="M91.1887 140.016L4.63901 194.485L-1.92996 182.284L91.1887 140.016Z" fill="#788F6F" fill-opacity="0.1"/>
<path d="M-6 40H6V78H-6V40Z" fill="#E2F0DD" fill-opacity="0.2"/>
<path d="M-6 308H6V346H-6V308Z" fill="#E2F0DD" fill-opacity="0.2"/>
<path d="M151 182L151 194L113 194L113 182L151 182Z" fill="#E2F0DD" fill-opacity="0.2"/>
<path d="M74.0573 58.3775L84.0783 64.979L63.1733 96.712L53.1524 90.1105L74.0573 58.3775Z" fill="#E2F0DD" fill-opacity="0.2"/>
<path d="M131.419 109.131L137.251 119.618L104.04 138.086L98.2084 127.599L131.419 109.131Z" fill="#E2F0DD" fill-opacity="0.2"/>
<path d="M140.793 252.657L136.346 263.802L101.052 249.719L105.499 238.573L140.793 252.657Z" fill="#E2F0DD" fill-opacity="0.2"/>
<path d="M93.7758 312.928L84.6406 320.709L60 291.781L69.1352 284L93.7758 312.928Z" fill="#E2F0DD" fill-opacity="0.2"/>
<path d="M1.3645e-05 386C51.1868 386 100.277 365.666 136.472 329.472C172.666 293.277 193 244.187 193 193C193 141.813 172.666 92.7229 136.472 56.5284C100.277 20.3339 51.1868 9.15953e-06 6.10352e-05 -8.06902e-07L6.01076e-05 21.2205C45.5588 21.2205 89.2516 39.3187 121.466 71.5336C153.681 103.748 171.78 147.441 171.78 193C171.78 238.559 153.681 282.252 121.466 314.466C89.2516 346.681 45.5588 364.78 1.45726e-05 364.78L1.3645e-05 386Z" fill="#788F6F" fill-opacity="0.1"/>
</svg>
